<svg width="27" height="27" viewBox="0 0 27 27" fill="none" xmlns="http://www.w3.org/2000/svg">
<path d="M19.3127 4.53489L22.4221 7.64283L19.3127 4.53489ZM21.3122 1.79692L12.9045 10.2046C12.4701 10.6385 12.1738 11.1912 12.053 11.7931L11.2764 15.6806L15.1639 14.9025C15.7658 14.7821 16.3178 14.487 16.7523 14.0525L25.16 5.64477C25.4127 5.39211 25.6131 5.09217 25.7499 4.76206C25.8866 4.43196 25.957 4.07815 25.957 3.72084C25.957 3.36354 25.8866 3.00973 25.7499 2.67962C25.6131 2.34951 25.4127 2.04957 25.16 1.79692C24.9074 1.54426 24.6075 1.34385 24.2773 1.20711C23.9472 1.07038 23.5934 1 23.2361 1C22.8788 1 22.525 1.07038 22.1949 1.20711C21.8648 1.34385 21.5649 1.54426 21.3122 1.79692V1.79692Z" stroke="#B5B5B5" stroke-width="2" stroke-linecap="round" stroke-linejoin="round"/>
<path d="M23.0213 18.6168V23.021C23.0213 23.7998 22.7119 24.5466 22.1613 25.0972C21.6107 25.6479 20.8638 25.9572 20.0851 25.9572H3.93617C3.15745 25.9572 2.41062 25.6479 1.85998 25.0972C1.30935 24.5466 1 23.7998 1 23.021V6.87209C1 6.09337 1.30935 5.34655 1.85998 4.79591C2.41062 4.24527 3.15745 3.93592 3.93617 3.93592H8.34043" stroke="#B5B5B5" stroke-width="2" stroke-linecap="round" stroke-linejoin="round"/>
</svg>
