<svg width="26" height="20" viewBox="0 0 26 20" fill="none" xmlns="http://www.w3.org/2000/svg">
<path d="M13.0002 13.0003C14.9149 13.0003 16.467 11.4482 16.467 9.53357C16.467 7.61893 14.9149 6.0668 13.0002 6.0668C11.0856 6.0668 9.53345 7.61893 9.53345 9.53357C9.53345 11.4482 11.0856 13.0003 13.0002 13.0003Z" fill="#B5B5B5"/>
<path d="M25.9484 9.23893C24.929 6.60215 23.1593 4.32186 20.8581 2.67988C18.5569 1.03791 15.825 0.106233 13 0C10.175 0.106233 7.44311 1.03791 5.14189 2.67988C2.84066 4.32186 1.071 6.60215 0.0516328 9.23893C-0.0172109 9.42935 -0.0172109 9.63786 0.0516328 9.82828C1.071 12.4651 2.84066 14.7454 5.14189 16.3873C7.44311 18.0293 10.175 18.961 13 19.0672C15.825 18.961 18.5569 18.0293 20.8581 16.3873C23.1593 14.7454 24.929 12.4651 25.9484 9.82828C26.0172 9.63786 26.0172 9.42935 25.9484 9.23893ZM13 15.1671C11.8858 15.1671 10.7966 14.8367 9.8702 14.2177C8.94378 13.5987 8.22172 12.7188 7.79533 11.6895C7.36895 10.6601 7.25738 9.52736 7.47475 8.43457C7.69212 7.34177 8.22866 6.33798 9.01652 5.55012C9.80438 4.76227 10.8082 4.22573 11.901 4.00836C12.9938 3.79099 14.1265 3.90255 15.1558 4.32894C16.1852 4.75532 17.0651 5.47738 17.6841 6.4038C18.3031 7.33023 18.6335 8.41941 18.6335 9.53361C18.6312 11.027 18.0369 12.4586 16.9809 13.5146C15.925 14.5705 14.4934 15.1648 13 15.1671Z" fill="#B5B5B5"/>
</svg>
