<svg width="27" height="27" viewBox="0 0 27 27" fill="none" xmlns="http://www.w3.org/2000/svg">
<path d="M0.957031 3.31443V23.5366C0.957031 25.1255 2.25703 26.4255 3.84592 26.4255H24.0681C25.657 26.4255 26.957 25.1255 26.957 23.5366V3.31443C26.957 1.72554 25.657 0.425537 24.0681 0.425537H3.84592C2.25703 0.425537 0.957031 1.72554 0.957031 3.31443ZM20.1681 19.6222C20.0345 19.7561 19.8758 19.8623 19.701 19.9348C19.5263 20.0073 19.339 20.0446 19.1498 20.0446C18.9606 20.0446 18.7733 20.0073 18.5986 19.9348C18.4238 19.8623 18.2651 19.7561 18.1315 19.6222L13.957 15.4622L9.78259 19.6366C9.51251 19.9067 9.1462 20.0585 8.76425 20.0585C8.3823 20.0585 8.016 19.9067 7.74592 19.6366C7.47584 19.3666 7.32411 19.0003 7.32411 18.6183C7.32411 18.4292 7.36136 18.2419 7.43374 18.0672C7.50611 17.8925 7.61219 17.7337 7.74592 17.6L11.9204 13.4255L7.74592 9.25109C7.47584 8.98101 7.32411 8.61471 7.32411 8.23276C7.32411 7.85081 7.47584 7.4845 7.74592 7.21443C8.016 6.94435 8.3823 6.79262 8.76425 6.79262C9.1462 6.79262 9.51251 6.94435 9.78259 7.21443L13.957 11.3889L18.1315 7.22887C18.4016 6.95879 18.7679 6.80706 19.1498 6.80706C19.5318 6.80706 19.8981 6.95879 20.1681 7.22887C20.4382 7.49895 20.5899 7.86525 20.5899 8.2472C20.5899 8.62915 20.4382 8.99546 20.1681 9.26554L15.9937 13.4255L20.1681 17.5855C20.717 18.1489 20.717 19.0733 20.1681 19.6222Z" fill="#B5B5B5"/>
</svg>
